<svg width="32" height="32" viewBox="0 0 32 32" fill="none" xmlns="http://www.w3.org/2000/svg">
<path d="M6.66683 1.33325H2.66683C2.31321 1.33325 1.97407 1.47373 1.72402 1.72378C1.47397 1.97382 1.3335 2.31296 1.3335 2.66659V29.3333C1.3335 29.6869 1.47397 30.026 1.72402 30.2761C1.97407 30.5261 2.31321 30.6666 2.66683 30.6666H6.66683V1.33325Z" fill="#C4B5FD"/>
<path d="M9.3335 30.6666H22.6668V1.33325H9.3335V30.6666ZM16.0002 25.3333C15.6465 25.3333 15.3074 25.1928 15.0574 24.9427C14.8073 24.6927 14.6668 24.3535 14.6668 23.9999C14.6668 23.6463 14.8073 23.3072 15.0574 23.0571C15.3074 22.8071 15.6465 22.6666 16.0002 22.6666C16.3538 22.6666 16.6929 22.8071 16.943 23.0571C17.193 23.3072 17.3335 23.6463 17.3335 23.9999C17.3335 24.3535 17.193 24.6927 16.943 24.9427C16.6929 25.1928 16.3538 25.3333 16.0002 25.3333ZM16.0002 6.66658C16.3538 6.66658 16.6929 6.80706 16.943 7.05711C17.193 7.30716 17.3335 7.6463 17.3335 7.99992C17.3335 8.35354 17.193 8.69268 16.943 8.94273C16.6929 9.19278 16.3538 9.33325 16.0002 9.33325C15.6465 9.33325 15.3074 9.19278 15.0574 8.94273C14.8073 8.69268 14.6668 8.35354 14.6668 7.99992C14.6668 7.6463 14.8073 7.30716 15.0574 7.05711C15.3074 6.80706 15.6465 6.66658 16.0002 6.66658ZM16.0002 14.6666C16.3538 14.6666 16.6929 14.8071 16.943 15.0571C17.193 15.3072 17.3335 15.6463 17.3335 15.9999C17.3335 16.3535 17.193 16.6927 16.943 16.9427C16.6929 17.1928 16.3538 17.3333 16.0002 17.3333C15.6465 17.3333 15.3074 17.1928 15.0574 16.9427C14.8073 16.6927 14.6668 16.3535 14.6668 15.9999C14.6668 15.6463 14.8073 15.3072 15.0574 15.0571C15.3074 14.8071 15.6465 14.6666 16.0002 14.6666Z" fill="#7C3AED"/>
<path d="M29.3335 1.33325H25.3335V30.6666H29.3335C29.6871 30.6666 30.0263 30.5261 30.2763 30.2761C30.5264 30.026 30.6668 29.6869 30.6668 29.3333V2.66659C30.6668 2.31296 30.5264 1.97382 30.2763 1.72378C30.0263 1.47373 29.6871 1.33325 29.3335 1.33325Z" fill="#1DB5BE"/>
</svg>
