<svg width="48" height="49" viewBox="0 0 48 49" fill="none" xmlns="http://www.w3.org/2000/svg">
<path d="M20.0002 21.8333H10.6668C10.3132 21.8333 9.97407 21.6928 9.72402 21.4427C9.47397 21.1927 9.3335 20.8535 9.3335 20.4999V11.1666C9.3335 10.813 9.47397 10.4738 9.72402 10.2238C9.97407 9.97373 10.3132 9.83325 10.6668 9.83325H20.0002C20.3538 9.83325 20.6929 9.97373 20.943 10.2238C21.193 10.4738 21.3335 10.813 21.3335 11.1666V20.4999C21.3335 20.8535 21.193 21.1927 20.943 21.4427C20.6929 21.6928 20.3538 21.8333 20.0002 21.8333Z" fill="#7C3AED"/>
<path d="M20.0002 39.1665H10.6668C10.3132 39.1665 9.97407 39.026 9.72402 38.776C9.47397 38.5259 9.3335 38.1868 9.3335 37.8332V28.4998C9.3335 28.1462 9.47397 27.8071 9.72402 27.557C9.97407 27.307 10.3132 27.1665 10.6668 27.1665H20.0002C20.3538 27.1665 20.6929 27.307 20.943 27.557C21.193 27.8071 21.3335 28.1462 21.3335 28.4998V37.8332C21.3335 38.1868 21.193 38.5259 20.943 38.776C20.6929 39.026 20.3538 39.1665 20.0002 39.1665Z" fill="#7C3AED"/>
<path d="M25.3335 11.1665H38.6668V13.8332H25.3335V11.1665Z" fill="#1DB5BE"/>
<path d="M38.6668 28.5H25.3335V31.1667H38.6668V28.5Z" fill="#1DB5BE"/>
<path d="M38.6668 35.1665H25.3335V37.8332H38.6668V35.1665Z" fill="#C4B5FD"/>
<path d="M38.6668 17.8333H25.3335V20.4999H38.6668V17.8333Z" fill="#C4B5FD"/>
</svg>
