<svg width="32" height="32" viewBox="0 0 32 32" fill="none" xmlns="http://www.w3.org/2000/svg">
<path d="M30.6668 7.99992V2.66659C30.6668 2.31296 30.5264 1.97382 30.2763 1.72378C30.0263 1.47373 29.6871 1.33325 29.3335 1.33325H2.66683C2.31321 1.33325 1.97407 1.47373 1.72402 1.72378C1.47397 1.97382 1.3335 2.31296 1.3335 2.66659V7.99992H30.6668Z" fill="#1DB5BE"/>
<path d="M1.3335 10.6665V29.3332C1.3335 29.6868 1.47397 30.0259 1.72402 30.276C1.97407 30.526 2.31321 30.6665 2.66683 30.6665H9.3335V10.6665H1.3335Z" fill="#C4B5FD"/>
<path d="M12 30.6665H29.3333C29.687 30.6665 30.0261 30.526 30.2761 30.276C30.5262 30.0259 30.6667 29.6868 30.6667 29.3332V10.6665H12V30.6665Z" fill="#7C3AED"/>
</svg>
